<?xml version="1.0" standalone="no"?>
<!DOCTYPE svg PUBLIC "-//W3C//DTD SVG 20010904//EN"
 "http://www.w3.org/TR/2001/REC-SVG-20010904/DTD/svg10.dtd">
<svg version="1.0" xmlns="http://www.w3.org/2000/svg"
 width="64.000000pt" height="64.000000pt" viewBox="0 0 64.000000 64.000000"
 preserveAspectRatio="xMidYMid meet">
<metadata>
Created by potrace 1.16, written by Peter Selinger 2001-2019
</metadata>
<g transform="translate(0.000000,64.000000) scale(0.100000,-0.100000)"
fill="#000000" stroke="none">
<path d="M160 587 c-146 -49 -155 -54 -158 -79 -3 -28 132 -473 150 -496 14
-17 51 -15 114 5 50 15 57 15 112 -1 64 -20 101 -19 113 4 25 49 49 109 49
124 0 10 23 90 51 177 28 88 49 172 47 187 -3 25 -11 30 -123 67 -66 21 -124
45 -128 52 -14 23 -68 13 -227 -40z m268 -205 c40 -125 72 -233 72 -239 0 -10
-310 -116 -318 -109 -4 5 -151 470 -149 472 2 2 309 102 318 103 3 1 38 -102
77 -227z"/>
<path d="M205 534 c-60 -20 -116 -41 -123 -48 -10 -10 -3 -44 39 -177 28 -90
57 -170 64 -177 10 -12 32 -8 126 23 63 20 120 42 127 50 12 11 6 39 -38 176
-49 154 -64 189 -79 189 -3 -1 -55 -17 -116 -36z m154 -151 c24 -76 44 -142
45 -147 1 -9 -157 -66 -184 -66 -11 0 -27 38 -58 138 -23 75 -42 142 -42 148
0 10 148 62 181 63 12 1 27 -35 58 -136z"/>
<path d="M232 401 c-75 -28 -80 -76 -12 -111 54 -28 66 -25 95 17 31 46 32 77
3 97 -27 19 -30 19 -86 -3z"/>
</g>
</svg>
