<?xml version="1.0" standalone="no"?>
<!DOCTYPE svg PUBLIC "-//W3C//DTD SVG 20010904//EN"
 "http://www.w3.org/TR/2001/REC-SVG-20010904/DTD/svg10.dtd">
<svg version="1.0" xmlns="http://www.w3.org/2000/svg"
 width="86.000000pt" height="64.000000pt" viewBox="0 0 86.000000 64.000000"
 preserveAspectRatio="xMidYMid meet">
<metadata>
Created by potrace 1.16, written by Peter Selinger 2001-2019
</metadata>
<g transform="translate(0.000000,64.000000) scale(0.100000,-0.100000)"
fill="#000000" stroke="none">
<path d="M185 624 c-78 -40 -120 -115 -114 -203 l4 -51 -38 0 c-34 0 -38 -3
-35 -22 3 -20 10 -23 49 -26 45 -3 50 -6 205 -162 104 -106 165 -160 179 -160
14 0 76 56 184 165 155 157 165 165 202 165 35 0 39 3 39 25 0 21 -5 25 -30
25 -30 0 -30 1 -30 53 0 108 -75 197 -174 205 -77 6 -121 -4 -160 -38 l-33
-30 -19 22 c-11 11 -33 27 -51 34 -44 19 -141 18 -178 -2z m153 -48 c15 -8 38
-26 51 -40 26 -27 55 -34 67 -15 17 28 100 69 139 69 96 0 178 -108 146 -192
-10 -27 -12 -28 -92 -28 l-81 0 -15 40 c-26 65 -47 54 -78 -40 -15 -44 -30
-80 -34 -80 -4 0 -23 44 -42 98 -22 58 -42 98 -51 100 -10 2 -24 -17 -41 -58
l-26 -60 -70 0 c-62 0 -72 3 -82 21 -6 12 -9 40 -6 62 14 102 129 168 215 123z
m50 -277 c24 -66 43 -104 52 -104 9 0 25 28 40 70 45 122 40 112 51 93 8 -15
25 -18 97 -18 l87 0 -140 -140 -140 -140 -133 133 -132 132 68 3 69 3 18 40
c10 21 20 38 22 35 2 -2 20 -50 41 -107z"/>
</g>
</svg>
