<?xml version="1.0" standalone="no"?>
<!DOCTYPE svg PUBLIC "-//W3C//DTD SVG 20010904//EN"
 "http://www.w3.org/TR/2001/REC-SVG-20010904/DTD/svg10.dtd">
<svg version="1.0" xmlns="http://www.w3.org/2000/svg"
 width="68.000000pt" height="66.000000pt" viewBox="0 0 68.000000 66.000000"
 preserveAspectRatio="xMidYMid meet">
<metadata>
Created by potrace 1.16, written by Peter Selinger 2001-2019
</metadata>
<g transform="translate(0.000000,66.000000) scale(0.100000,-0.100000)"
fill="#000000" stroke="none">
<path d="M415 644 c-70 -36 -96 -81 -98 -168 -2 -59 -1 -61 24 -64 25 -3 26 0
32 53 9 90 53 138 127 138 95 0 151 -95 106 -181 -29 -57 -53 -62 -277 -62
-199 0 -203 0 -246 -25 -61 -36 -86 -89 -81 -170 7 -106 71 -165 180 -165 67
0 114 24 151 77 23 32 29 51 30 104 2 62 1 64 -24 67 -25 3 -26 0 -32 -53 -9
-90 -53 -138 -127 -138 -95 0 -151 95 -106 181 29 57 53 62 277 62 199 0 203
0 246 25 61 36 86 89 81 170 -4 73 -35 122 -91 149 -44 20 -133 21 -172 0z"/>
</g>
</svg>
