<?xml version="1.0" standalone="no"?>
<!DOCTYPE svg PUBLIC "-//W3C//DTD SVG 20010904//EN"
 "http://www.w3.org/TR/2001/REC-SVG-20010904/DTD/svg10.dtd">
<svg version="1.0" xmlns="http://www.w3.org/2000/svg"
 width="65.000000pt" height="65.000000pt" viewBox="0 0 65.000000 65.000000"
 preserveAspectRatio="xMidYMid meet">
<metadata>
Created by potrace 1.16, written by Peter Selinger 2001-2019
</metadata>
<g transform="translate(0.000000,65.000000) scale(0.100000,-0.100000)"
fill="#000000" stroke="none">
<path d="M298 623 c-14 -16 -29 -37 -32 -49 -8 -26 -179 -194 -198 -194 -27 0
-68 -54 -68 -91 0 -30 11 -45 79 -113 65 -65 86 -79 110 -79 37 0 77 34 97 81
8 17 18 32 22 32 4 0 54 -47 112 -105 93 -93 109 -105 139 -105 49 0 91 41 91
90 0 32 -11 46 -105 140 -58 58 -105 108 -105 112 0 4 15 14 33 22 46 20 80
60 80 97 0 24 -14 45 -79 110 -69 69 -83 79 -114 79 -27 0 -43 -7 -62 -27z
m187 -183 c-10 -11 -23 -19 -29 -16 -15 5 -235 -214 -230 -229 3 -6 -5 -20
-16 -30 -21 -19 -21 -18 -90 50 l-70 69 21 22 c12 13 26 21 33 18 14 -5 233
213 223 222 -4 4 3 18 15 31 l22 24 70 -70 c69 -69 70 -70 51 -91z m103 -355
c-7 -45 -40 -28 -139 71 l-99 98 22 23 22 24 98 -98 c69 -68 98 -104 96 -118z"/>
</g>
</svg>
